<?xml version="1.0" encoding="UTF-8"?>
<svg width="27px" height="32px" viewBox="0 0 27 32" version="1.1" xmlns="http://www.w3.org/2000/svg" xmlns:xlink="http://www.w3.org/1999/xlink">
    <title>logo--black</title>
    <g id="Page-1" stroke="none" stroke-width="1" fill="none" fill-rule="evenodd">
        <g id="Desktop-Copy" transform="translate(-247.000000, -332.000000)" fill="#000000" fill-rule="nonzero">
            <g id="Apple_logo_black" transform="translate(247.000000, 332.000000)">
                <path d="M26.434122,24.9377151 C25.9493647,26.0557067 25.3755702,27.0848107 24.7107597,28.0309546 C23.8045597,29.3207914 23.0625841,30.2136042 22.490768,30.7093929 C21.6043548,31.5231945 20.6546259,31.9399721 19.6376243,31.9636745 C18.9075204,31.9636745 18.0270423,31.7562729 17.0021265,31.3355465 C15.9738475,30.9167913 15.0288672,30.7093929 14.1648115,30.7093929 C13.2586117,30.7093929 12.2867221,30.9167913 11.2471651,31.3355465 C10.2060237,31.7562729 9.36729478,31.9755273 8.72602978,31.9972553 C7.75077668,32.0387346 6.77869022,31.6101033 5.80838342,30.7093929 C5.1890814,30.1701482 4.41445887,29.2457322 3.48649423,27.9361419 C2.49086202,26.5376651 1.67231439,24.9159874 1.03104945,23.0671545 C0.344276765,21.070178 0,19.1364097 0,17.2642697 C0,15.1197424 0.464180063,13.2701194 1.39392506,11.7201416 C2.12462272,10.4751429 3.09670982,9.4930492 4.31335152,8.77208283 C5.52999451,8.05111774 6.84457756,7.68372159 8.26026764,7.66021567 C9.03488953,7.66021567 10.0507045,7.89941822 11.3130521,8.36952764 C12.5718389,8.8412169 13.3800979,9.08041977 13.7344649,9.08041977 C13.9993996,9.08041977 14.8972893,8.80072379 16.4194279,8.24311197 C17.8588616,7.72599167 19.0737227,7.51187424 20.0689594,7.59621728 C22.7657941,7.81349471 24.7918825,8.8747961 26.1393107,10.7868367 C23.727395,12.2457556 22.5342978,14.2891501 22.5580408,16.9105023 C22.5798053,18.9523166 23.3217808,20.651425 24.7800105,22.000521 C25.440863,22.6266736 26.1788824,23.1106096 27,23.4543033 C26.8219283,23.9698431 26.6339611,24.4636553 26.434122,24.9377151 Z M20.2490127,0.640182373 C20.2490127,2.24054742 19.6633456,3.734804 18.4959714,5.11787242 C17.0872057,6.76207011 15.3832348,7.71216415 13.5354178,7.5622432 C13.5118726,7.37024865 13.4982203,7.16818113 13.4982203,6.95584226 C13.4982203,5.41949321 14.1681749,3.77529616 15.357909,2.43094198 C15.9518842,1.75027193 16.7073145,1.18430395 17.6234075,0.732820449 C18.5375215,0.288073268 19.4021708,0.0421187182 20.2153756,0 C20.2391201,0.213943991 20.2490127,0.427901102 20.2490127,0.640161573 L20.2490127,0.640182373 Z" id="logo--black"></path>
            </g>
        </g>
    </g>
</svg>