<?xml version="1.0" encoding="UTF-8"?>
<svg width="258px" height="55px" viewBox="0 0 258 55" version="1.1" xmlns="http://www.w3.org/2000/svg" xmlns:xlink="http://www.w3.org/1999/xlink">
    <title>peekaboo</title>
    <g id="Page-1" stroke="none" stroke-width="1" fill="none" fill-rule="evenodd">
        <g id="Desktop-Copy" transform="translate(-386.000000, -160.000000)" fill="#000000" fill-rule="nonzero">
            <g id="Group-3" transform="translate(356.000000, 160.000000)">
                <path d="M37.8790345,54.824 L37.8790345,39.2 C38.9617011,40.2826667 40.2217011,41.1226667 41.6590345,41.72 C43.0963678,42.3173333 44.6550345,42.616 46.3350345,42.616 C48.2390345,42.616 50.0217011,42.2333333 51.6830345,41.468 C53.3443678,40.7026667 54.7910345,39.6386667 56.0230345,38.276 C57.2550345,36.9133333 58.2350345,35.308 58.9630345,33.46 C59.6910345,31.612 60.0550345,29.624 60.0550345,27.496 C60.0550345,25.368 59.6910345,23.3893333 58.9630345,21.56 C58.2350345,19.7306667 57.2550345,18.144 56.0230345,16.8 C54.7910345,15.456 53.3443678,14.4013333 51.6830345,13.636 C50.0217011,12.8706667 48.2390345,12.488 46.3350345,12.488 C44.5803678,12.488 42.9563678,12.8146667 41.4630345,13.468 C39.9697011,14.1213333 38.6630345,15.0266667 37.5430345,16.184 L37.5430345,16.184 L37.5430345,13.16 L30.4310345,13.16 L30.4310345,54.824 L37.8790345,54.824 Z M45.2710345,35.728 C44.2630345,35.728 43.3110345,35.5133333 42.4150345,35.084 C41.5190345,34.6546667 40.7350345,34.0666667 40.0630345,33.32 C39.3910345,32.5733333 38.8590345,31.696 38.4670345,30.688 C38.0750345,29.68 37.8790345,28.616 37.8790345,27.496 C37.8790345,26.376 38.0750345,25.3213333 38.4670345,24.332 C38.8590345,23.3426667 39.3910345,22.484 40.0630345,21.756 C40.7350345,21.028 41.5190345,20.4493333 42.4150345,20.02 C43.3110345,19.5906667 44.2630345,19.376 45.2710345,19.376 C46.2790345,19.376 47.2310345,19.5813333 48.1270345,19.992 C49.0230345,20.4026667 49.8070345,20.972 50.4790345,21.7 C51.1510345,22.428 51.6830345,23.2866667 52.0750345,24.276 C52.4670345,25.2653333 52.6630345,26.3386667 52.6630345,27.496 C52.6630345,28.6906667 52.4670345,29.7826667 52.0750345,30.772 C51.6830345,31.7613333 51.1510345,32.6293333 50.4790345,33.376 C49.8070345,34.1226667 49.0230345,34.7013333 48.1270345,35.112 C47.2310345,35.5226667 46.2790345,35.728 45.2710345,35.728 Z M77.7162759,42.672 C81.3376092,42.672 84.3522759,41.7666667 86.7602759,39.956 C89.1682759,38.1453333 90.8016092,35.7653333 91.6602759,32.816 L91.6602759,32.816 L83.7642759,32.816 C83.1296092,33.9733333 82.2616092,34.8226667 81.1602759,35.364 C80.0589425,35.9053333 78.8922759,36.176 77.6602759,36.176 C75.9056092,36.176 74.3842759,35.672 73.0962759,34.664 C71.8082759,33.656 70.9216092,32.256 70.4362759,30.464 L70.4362759,30.464 L92.2202759,30.464 C92.4816092,27.6266667 92.2762759,25.088 91.6042759,22.848 C90.9322759,20.608 89.9242759,18.7133333 88.5802759,17.164 C87.2362759,15.6146667 85.6216092,14.4386667 83.7362759,13.636 C81.8509425,12.8333333 79.8442759,12.432 77.7162759,12.432 C75.7002759,12.432 73.7962759,12.8333333 72.0042759,13.636 C70.2122759,14.4386667 68.6442759,15.5213333 67.3002759,16.884 C65.9562759,18.2466667 64.8922759,19.852 64.1082759,21.7 C63.3242759,23.548 62.9322759,25.5173333 62.9322759,27.608 C62.9322759,29.6986667 63.3242759,31.6586667 64.1082759,33.488 C64.8922759,35.3173333 65.9562759,36.9133333 67.3002759,38.276 C68.6442759,39.6386667 70.2122759,40.712 72.0042759,41.496 C73.7962759,42.28 75.7002759,42.672 77.7162759,42.672 Z M84.8842759,24.416 L70.5482759,24.416 C71.0709425,22.736 71.9669425,21.4013333 73.2362759,20.412 C74.5056092,19.4226667 75.9802759,18.928 77.6602759,18.928 C79.4522759,18.928 80.9922759,19.4226667 82.2802759,20.412 C83.5682759,21.4013333 84.4362759,22.736 84.8842759,24.416 L84.8842759,24.416 Z M109.993517,42.672 C113.614851,42.672 116.629517,41.7666667 119.037517,39.956 C121.445517,38.1453333 123.078851,35.7653333 123.937517,32.816 L123.937517,32.816 L116.041517,32.816 C115.406851,33.9733333 114.538851,34.8226667 113.437517,35.364 C112.336184,35.9053333 111.169517,36.176 109.937517,36.176 C108.182851,36.176 106.661517,35.672 105.373517,34.664 C104.085517,33.656 103.198851,32.256 102.713517,30.464 L102.713517,30.464 L124.497517,30.464 C124.758851,27.6266667 124.553517,25.088 123.881517,22.848 C123.209517,20.608 122.201517,18.7133333 120.857517,17.164 C119.513517,15.6146667 117.898851,14.4386667 116.013517,13.636 C114.128184,12.8333333 112.121517,12.432 109.993517,12.432 C107.977517,12.432 106.073517,12.8333333 104.281517,13.636 C102.489517,14.4386667 100.921517,15.5213333 99.5775172,16.884 C98.2335172,18.2466667 97.1695172,19.852 96.3855172,21.7 C95.6015172,23.548 95.2095172,25.5173333 95.2095172,27.608 C95.2095172,29.6986667 95.6015172,31.6586667 96.3855172,33.488 C97.1695172,35.3173333 98.2335172,36.9133333 99.5775172,38.276 C100.921517,39.6386667 102.489517,40.712 104.281517,41.496 C106.073517,42.28 107.977517,42.672 109.993517,42.672 Z M117.161517,24.416 L102.825517,24.416 C103.348184,22.736 104.244184,21.4013333 105.513517,20.412 C106.782851,19.4226667 108.257517,18.928 109.937517,18.928 C111.729517,18.928 113.269517,19.4226667 114.557517,20.412 C115.845517,21.4013333 116.713517,22.736 117.161517,24.416 L117.161517,24.416 Z M136.558759,42 L136.558759,33.712 L140.254759,29.848 L147.422759,42 L156.830759,42 L145.462759,24.416 L156.214759,13.16 L146.022759,13.16 L136.558759,23.632 L136.558759,0.336 L129.166759,0.336 L129.166759,42 L136.558759,42 Z M171.972,42.616 C173.764,42.616 175.406667,42.2986667 176.9,41.664 C178.393333,41.0293333 179.7,40.1146667 180.82,38.92 L180.82,38.92 L180.82,42 L187.876,42 L187.876,13.16 L180.82,13.16 L180.82,16.24 C179.7,15.0453333 178.393333,14.1306667 176.9,13.496 C175.406667,12.8613333 173.764,12.544 171.972,12.544 C170.105333,12.544 168.341333,12.9266667 166.68,13.692 C165.018667,14.4573333 163.562667,15.512 162.312,16.856 C161.061333,18.2 160.072,19.796 159.344,21.644 C158.616,23.492 158.252,25.48 158.252,27.608 C158.252,29.736 158.616,31.7146667 159.344,33.544 C160.072,35.3733333 161.061333,36.96 162.312,38.304 C163.562667,39.648 165.018667,40.7026667 166.68,41.468 C168.341333,42.2333333 170.105333,42.616 171.972,42.616 Z M173.092,35.784 C172.084,35.784 171.132,35.5786667 170.236,35.168 C169.34,34.7573333 168.556,34.188 167.884,33.46 C167.212,32.732 166.68,31.8733333 166.288,30.884 C165.896,29.8946667 165.7,28.8213333 165.7,27.664 C165.7,26.5066667 165.896,25.4146667 166.288,24.388 C166.68,23.3613333 167.212,22.484 167.884,21.756 C168.556,21.028 169.34,20.4493333 170.236,20.02 C171.132,19.5906667 172.084,19.376 173.092,19.376 C174.1,19.376 175.052,19.5906667 175.948,20.02 C176.844,20.4493333 177.628,21.0373333 178.3,21.784 C178.972,22.5306667 179.504,23.408 179.896,24.416 C180.288,25.424 180.484,26.5066667 180.484,27.664 C180.484,28.784 180.288,29.8386667 179.896,30.828 C179.504,31.8173333 178.972,32.676 178.3,33.404 C177.628,34.132 176.844,34.7106667 175.948,35.14 C175.052,35.5693333 174.1,35.784 173.092,35.784 Z M210.129241,42.616 C212.033241,42.616 213.815908,42.2333333 215.477241,41.468 C217.138575,40.7026667 218.585241,39.648 219.817241,38.304 C221.049241,36.96 222.029241,35.3733333 222.757241,33.544 C223.485241,31.7146667 223.849241,29.736 223.849241,27.608 C223.849241,25.48 223.485241,23.492 222.757241,21.644 C222.029241,19.796 221.049241,18.2 219.817241,16.856 C218.585241,15.512 217.138575,14.4573333 215.477241,13.692 C213.815908,12.9266667 212.033241,12.544 210.129241,12.544 C208.449241,12.544 206.890575,12.8333333 205.453241,13.412 C204.015908,13.9906667 202.755908,14.8213333 201.673241,15.904 L201.673241,15.904 L201.673241,0.336 L194.225241,0.336 L194.225241,42 L201.337241,42 L201.337241,38.92 C202.457241,40.1146667 203.763908,41.0293333 205.257241,41.664 C206.750575,42.2986667 208.374575,42.616 210.129241,42.616 Z M209.065241,35.784 C208.057241,35.784 207.105241,35.5693333 206.209241,35.14 C205.313241,34.7106667 204.529241,34.132 203.857241,33.404 C203.185241,32.676 202.653241,31.8173333 202.261241,30.828 C201.869241,29.8386667 201.673241,28.784 201.673241,27.664 C201.673241,26.5066667 201.869241,25.424 202.261241,24.416 C202.653241,23.408 203.185241,22.5306667 203.857241,21.784 C204.529241,21.0373333 205.313241,20.4493333 206.209241,20.02 C207.105241,19.5906667 208.057241,19.376 209.065241,19.376 C210.073241,19.376 211.025241,19.5906667 211.921241,20.02 C212.817241,20.4493333 213.601241,21.028 214.273241,21.756 C214.945241,22.484 215.477241,23.3613333 215.869241,24.388 C216.261241,25.4146667 216.457241,26.5066667 216.457241,27.664 C216.457241,28.8213333 216.261241,29.8946667 215.869241,30.884 C215.477241,31.8733333 214.945241,32.732 214.273241,33.46 C213.601241,34.188 212.817241,34.7573333 211.921241,35.168 C211.025241,35.5786667 210.073241,35.784 209.065241,35.784 Z M241.230483,42.672 C243.246483,42.672 245.131816,42.2893333 246.886483,41.524 C248.641149,40.7586667 250.181149,39.704 251.506483,38.36 C252.831816,37.016 253.877149,35.4293333 254.642483,33.6 C255.407816,31.7706667 255.790483,29.7733333 255.790483,27.608 C255.790483,25.4426667 255.407816,23.436 254.642483,21.588 C253.877149,19.74 252.831816,18.1346667 251.506483,16.772 C250.181149,15.4093333 248.641149,14.3453333 246.886483,13.58 C245.131816,12.8146667 243.246483,12.432 241.230483,12.432 C239.214483,12.432 237.329149,12.8146667 235.574483,13.58 C233.819816,14.3453333 232.289149,15.4093333 230.982483,16.772 C229.675816,18.1346667 228.639816,19.74 227.874483,21.588 C227.109149,23.436 226.726483,25.4426667 226.726483,27.608 C226.726483,29.7733333 227.109149,31.7706667 227.874483,33.6 C228.639816,35.4293333 229.675816,37.016 230.982483,38.36 C232.289149,39.704 233.819816,40.7586667 235.574483,41.524 C237.329149,42.2893333 239.214483,42.672 241.230483,42.672 Z M241.230483,35.896 C240.259816,35.896 239.335816,35.7 238.458483,35.308 C237.581149,34.916 236.825149,34.356 236.190483,33.628 C235.555816,32.9 235.051816,32.032 234.678483,31.024 C234.305149,30.016 234.118483,28.896 234.118483,27.664 C234.118483,26.432 234.305149,25.2933333 234.678483,24.248 C235.051816,23.2026667 235.555816,22.3066667 236.190483,21.56 C236.825149,20.8133333 237.581149,20.2346667 238.458483,19.824 C239.335816,19.4133333 240.259816,19.208 241.230483,19.208 C242.201149,19.208 243.115816,19.4133333 243.974483,19.824 C244.833149,20.2346667 245.589149,20.8133333 246.242483,21.56 C246.895816,22.3066667 247.409149,23.2026667 247.782483,24.248 C248.155816,25.2933333 248.342483,26.432 248.342483,27.664 C248.342483,28.896 248.155816,30.016 247.782483,31.024 C247.409149,32.032 246.895816,32.9 246.242483,33.628 C245.589149,34.356 244.833149,34.916 243.974483,35.308 C243.115816,35.7 242.201149,35.896 241.230483,35.896 Z M273.171724,42.672 C275.187724,42.672 277.073057,42.2893333 278.827724,41.524 C280.582391,40.7586667 282.122391,39.704 283.447724,38.36 C284.773057,37.016 285.818391,35.4293333 286.583724,33.6 C287.349057,31.7706667 287.731724,29.7733333 287.731724,27.608 C287.731724,25.4426667 287.349057,23.436 286.583724,21.588 C285.818391,19.74 284.773057,18.1346667 283.447724,16.772 C282.122391,15.4093333 280.582391,14.3453333 278.827724,13.58 C277.073057,12.8146667 275.187724,12.432 273.171724,12.432 C271.155724,12.432 269.270391,12.8146667 267.515724,13.58 C265.761057,14.3453333 264.230391,15.4093333 262.923724,16.772 C261.617057,18.1346667 260.581057,19.74 259.815724,21.588 C259.050391,23.436 258.667724,25.4426667 258.667724,27.608 C258.667724,29.7733333 259.050391,31.7706667 259.815724,33.6 C260.581057,35.4293333 261.617057,37.016 262.923724,38.36 C264.230391,39.704 265.761057,40.7586667 267.515724,41.524 C269.270391,42.2893333 271.155724,42.672 273.171724,42.672 Z M273.171724,35.896 C272.201057,35.896 271.277057,35.7 270.399724,35.308 C269.522391,34.916 268.766391,34.356 268.131724,33.628 C267.497057,32.9 266.993057,32.032 266.619724,31.024 C266.246391,30.016 266.059724,28.896 266.059724,27.664 C266.059724,26.432 266.246391,25.2933333 266.619724,24.248 C266.993057,23.2026667 267.497057,22.3066667 268.131724,21.56 C268.766391,20.8133333 269.522391,20.2346667 270.399724,19.824 C271.277057,19.4133333 272.201057,19.208 273.171724,19.208 C274.142391,19.208 275.057057,19.4133333 275.915724,19.824 C276.774391,20.2346667 277.530391,20.8133333 278.183724,21.56 C278.837057,22.3066667 279.350391,23.2026667 279.723724,24.248 C280.097057,25.2933333 280.283724,26.432 280.283724,27.664 C280.283724,28.896 280.097057,30.016 279.723724,31.024 C279.350391,32.032 278.837057,32.9 278.183724,33.628 C277.530391,34.356 276.774391,34.916 275.915724,35.308 C275.057057,35.7 274.142391,35.896 273.171724,35.896 Z" id="peekaboo"></path>
            </g>
        </g>
    </g>
</svg>